{"title":"Game of Death.2010.DvDScr.H264.Feel-Free","uid":6030514,"size":695212670,"categoryP":"video","categoryS":"movies","magnet":"?xt=urn:btih:fde89f6e297039828309ee71cb8979de88ed856d&amp;dn=Game+of+Death.2010.DvDScr.H264.Feel-Free&amp;tr=udp%3A%2F%2Ftracker.openbittorrent.com%3A80&amp;tr=udp%3A%2F%2Fopen.demonii.com%3A1337&amp;tr=udp%3A%2F%2Ftracker.coppersurfer.tk%3A6969&amp;tr=udp%3A%2F%2Fexodus.desync.com%3A6969","seeders":0,"leechers":1,"uploader":"neon","files":-1,"time":1292026168,"description":"Genre:Action | Adventure\nLanguage:English\n &lt;a href=&quot; http://www.imdb.com/title/tt1446072/&quot; rel=&quot;nofollow&quot; target=&quot;_NEW&quot;&gt; http://www.imdb.com/title/tt1446072/&lt;/a&gt;\nSource:DVDScr Thx.\n\n\nFormat : MPEG-4\nFormat profile : Base Media\nCodec ID : isom\nFile size : 662 MiB\nDuration : 1h 22mn\nOverall bit rate : 1 123 Kbps\n\n\nVideo\nCodec ID : avc1\nCodec ID/Info : Advanced Video Coding\nDuration : 1h 22mn\nBit rate mode : Variable\nBit rate : 965 Kbps\nWidth : 720 pixels\nHeight : 304 pixels\nDisplay aspect ratio : 2.35:1\nFrame rate mode : Constant\nFrame rate : 23.976 fps\nOriginal frame rate : 23.000 fps\nColor space : YUV\nChroma subsampling : 4:2:0\nBit depth : 8 bits\nScan type : Progressive\nBits/(Pixel*Frame) : 0.184\nStream size : 568 MiB (86%)\n\n\nAudio\nID : 1\nFormat : AAC\nFormat/Info : Advanced Audio Codec\nFormat version : Version 4\nFormat profile : LC\nCodec ID : 40\nDuration : 1h 22mn\nBit rate mode : Constant\nBit rate : 153 Kbps\nChannel(s) : 2 channels\nChannel positions : Front: L R\nSampling rate : 48.0 KHz\nStream size : 90.2 MiB (14%)\nLanguage : English\n\n\nPlot:\nSecret Ops agent Marcus is sent to Detroit to take out an arms dealer and the head of the hedge fund that is financing him. His CIA backup has other plans and turns on him and it's a fight to survive in a hospital.\n &lt;a href=&quot;\nhttp://www.rapidhdd.com/images/137999vlcsnap-2010-12-11-07h08m42s192.png&quot; rel=&quot;nofollow&quot; target=&quot;_NEW&quot;&gt;\nhttp://www.rapidhdd.com/images/137999vlcsnap-2010-12-11-07h08m42s192.png&lt;/a&gt; &lt;a href=&quot;\nhttp://www.rapidhdd.com/images/140132vlcsnap-2010-12-11-07h08m48s252.png&quot; rel=&quot;nofollow&quot; target=&quot;_NEW&quot;&gt;\nhttp://www.rapidhdd.com/images/140132vlcsnap-2010-12-11-07h08m48s252.png&lt;/a&gt; &lt;a href=&quot;\nhttp://www.rapidhdd.com/images/26957vlcsnap-2010-12-11-07h09m04s158.png&quot; rel=&quot;nofollow&quot; target=&quot;_NEW&quot;&gt;\nhttp://www.rapidhdd.com/images/26957vlcsnap-2010-12-11-07h09m04s158.png&lt;/a&gt;","torrent":{"xt":"urn:btih:fde89f6e297039828309ee71cb8979de88ed856d","amp;dn":"Game+of+Death.2010.DvDScr.H264.Feel-Free","amp;tr":["udp%3A%2F%2Ftracker.openbittorrent.com%3A80","udp%3A%2F%2Fopen.demonii.com%3A1337","udp%3A%2F%2Ftracker.coppersurfer.tk%3A6969","udp%3A%2F%2Fexodus.desync.com%3A6969"],"infoHash":"fde89f6e297039828309ee71cb8979de88ed856d","infoHashBuffer":{"type":"Buffer","data":[253,232,159,110,41,112,57,130,131,9,238,113,203,137,121,222,136,237,133,109]},"announce":[],"urlList":[]}}